<svg width="30" height="20" viewBox="0 0 30 20" fill="none" xmlns="http://www.w3.org/2000/svg">
<path d="M1.66667 20C1.19444 20 0.798611 19.8403 0.479167 19.5208C0.159722 19.2014 0 18.8056 0 18.3333C0 17.8611 0.159722 17.4653 0.479167 17.1458C0.798611 16.8264 1.19444 16.6667 1.66667 16.6667H28.3333C28.8056 16.6667 29.2014 16.8264 29.5208 17.1458C29.8403 17.4653 30 17.8611 30 18.3333C30 18.8056 29.8403 19.2014 29.5208 19.5208C29.2014 19.8403 28.8056 20 28.3333 20H1.66667ZM1.66667 11.6667C1.19444 11.6667 0.798611 11.5069 0.479167 11.1875C0.159722 10.8681 0 10.4722 0 10C0 9.52778 0.159722 9.13194 0.479167 8.8125C0.798611 8.49306 1.19444 8.33333 1.66667 8.33333H28.3333C28.8056 8.33333 29.2014 8.49306 29.5208 8.8125C29.8403 9.13194 30 9.52778 30 10C30 10.4722 29.8403 10.8681 29.5208 11.1875C29.2014 11.5069 28.8056 11.6667 28.3333 11.6667H1.66667ZM1.66667 3.33333C1.19444 3.33333 0.798611 3.17361 0.479167 2.85417C0.159722 2.53472 0 2.13889 0 1.66667C0 1.19444 0.159722 0.798611 0.479167 0.479167C0.798611 0.159722 1.19444 0 1.66667 0H28.3333C28.8056 0 29.2014 0.159722 29.5208 0.479167C29.8403 0.798611 30 1.19444 30 1.66667C30 2.13889 29.8403 2.53472 29.5208 2.85417C29.2014 3.17361 28.8056 3.33333 28.3333 3.33333H1.66667Z" fill="black"/>
</svg>
